<svg xmlns="http://www.w3.org/2000/svg" viewBox="0 0 64 64">
  <rect x="8" y="8" width="48" height="48" rx="24" fill="#181717"/>
  <path fill="white" d="M32 16c-8.8 0-16 7.2-16 16 0 7.1 4.6 13.1 11 15.2.8.1 1.1-.3 1.1-.7v-2.7c-4.5 1-5.4-2.1-5.4-2.1-.7-1.9-1.8-2.4-1.8-2.4-1.5-1 .1-1 .1-1 1.6.1 2.4 1.6 2.4 1.6 1.4 2.4 3.7 1.7 4.7 1.3.1-1 .6-1.7 1-2.1-3.6-.4-7.4-1.8-7.4-8 0-1.8.6-3.2 1.6-4.3-.1-.4-.7-2 .2-4.2 0 0 1.3-.4 4.4 1.6 1.3-.4 2.6-.5 4-.5 1.4 0 2.7.2 4 .5 3.1-2 4.4-1.6 4.4-1.6.9 2.2.3 3.8.2 4.2 1 1.1 1.6 2.5 1.6 4.3 0 6.2-3.8 7.6-7.4 8 .6.5 1.1 1.5 1.1 3v4.5c0 .4.3.9 1.1.7 6.4-2 11-8 11-15.2 0-8.8-7.2-16-16-16z"/>
</svg>